<svg width="32" height="32" viewBox="0 0 32 32" fill="none" xmlns="http://www.w3.org/2000/svg">
<mask id="mask0_814_1695" style="mask-type:alpha" maskUnits="userSpaceOnUse" x="0" y="0" width="32" height="32">
<rect width="32" height="32" fill="#D9D9D9"/>
</mask>
<g mask="url(#mask0_814_1695)">
<path d="M2.66602 29.3332V26.6666C3.68824 26.6666 4.69935 26.5999 5.69935 26.4666C6.69935 26.3332 7.67713 26.0888 8.63268 25.7332C7.61046 25.2221 6.8049 24.4832 6.21602 23.5166C5.62713 22.5499 5.33268 21.4999 5.33268 20.3666V17.3332H10.666V13.3332H15.166L10.7993 4.5999L13.1993 3.3999L17.566 12.1332C18.0105 13.0221 17.9771 13.8888 17.466 14.7332C16.9549 15.5777 16.1993 15.9999 15.1993 15.9999H13.3327V17.3332C13.3327 18.0666 13.0716 18.6943 12.5493 19.2166C12.0271 19.7388 11.3993 19.9999 10.666 19.9999H7.99935V20.3666C7.99935 21.1443 8.23824 21.8277 8.71602 22.4166C9.19379 23.0055 9.79935 23.3999 10.5327 23.5999L10.9327 23.6999C11.8216 23.9221 12.3216 24.4777 12.4327 25.3666C12.5438 26.2555 12.1993 26.9221 11.3993 27.3666C10.066 28.0999 8.66046 28.611 7.18268 28.8999C5.7049 29.1888 4.19935 29.3332 2.66602 29.3332ZM21.7327 25.5332L19.8327 23.6666C20.2993 23.1999 20.666 22.661 20.9327 22.0499C21.1993 21.4388 21.3327 20.7777 21.3327 20.0666C21.3327 19.3555 21.1993 18.6943 20.9327 18.0832C20.666 17.4721 20.2993 16.9332 19.8327 16.4666L21.7327 14.5666C22.4438 15.2777 22.9993 16.1055 23.3993 17.0499C23.7993 17.9943 23.9993 18.9999 23.9993 20.0666C23.9993 21.1332 23.7993 22.1332 23.3993 23.0666C22.9993 23.9999 22.4438 24.8221 21.7327 25.5332ZM25.4993 29.3332L23.5993 27.4332C24.5549 26.4777 25.3049 25.3721 25.8493 24.1166C26.3938 22.861 26.666 21.511 26.666 20.0666C26.666 18.5999 26.3938 17.2443 25.8493 15.9999C25.3049 14.7555 24.5549 13.6555 23.5993 12.6999L25.4993 10.7999C26.6993 11.9999 27.6382 13.3888 28.316 14.9666C28.9938 16.5443 29.3327 18.2443 29.3327 20.0666C29.3327 21.8666 28.9938 23.561 28.316 25.1499C27.6382 26.7388 26.6993 28.1332 25.4993 29.3332Z" fill="#8F8F8F"/>
</g>
</svg>
