<svg width="8" height="7" viewBox="0 0 8 7" fill="none" xmlns="http://www.w3.org/2000/svg">
<path d="M4.00065 6.27539L3.63273 5.94464C3.08018 5.44336 2.62323 5.01261 2.2619 4.65239C1.90057 4.29211 1.61423 3.97147 1.4029 3.69047C1.19157 3.40953 1.04393 3.15322 0.959984 2.92155C0.875984 2.68994 0.833984 2.45492 0.833984 2.21647C0.833984 1.74342 0.993484 1.34736 1.31248 1.0283C1.63154 0.709305 2.0276 0.549805 2.50065 0.549805C2.79165 0.549805 3.06665 0.61786 3.32565 0.753971C3.58465 0.890082 3.80965 1.08528 4.00065 1.33955C4.19165 1.08528 4.41665 0.890082 4.67565 0.753971C4.93465 0.61786 5.20965 0.549805 5.50065 0.549805C5.97371 0.549805 6.36976 0.709305 6.68882 1.0283C7.00782 1.34736 7.16732 1.74342 7.16732 2.21647C7.16732 2.45492 7.12532 2.68994 7.04132 2.92155C6.95737 3.15322 6.80973 3.40953 6.5984 3.69047C6.38707 3.97147 6.10126 4.29211 5.74098 4.65239C5.38076 5.01261 4.92329 5.44336 4.36857 5.94464L4.00065 6.27539ZM4.00065 5.5998C4.53398 5.11992 4.97287 4.70858 5.31732 4.36581C5.66176 4.02308 5.93398 3.72533 6.13398 3.47255C6.33398 3.21978 6.47287 2.9953 6.55065 2.79914C6.62843 2.60303 6.66732 2.4088 6.66732 2.21647C6.66732 1.88314 6.55621 1.60536 6.33398 1.38314C6.11176 1.16092 5.83398 1.0498 5.50065 1.0498C5.23743 1.0498 4.99415 1.12447 4.77082 1.2738C4.54754 1.42319 4.37073 1.631 4.2404 1.89722H3.7609C3.6284 1.62883 3.45104 1.4205 3.22882 1.27222C3.0066 1.12394 2.76387 1.0498 2.50065 1.0498C2.16943 1.0498 1.89218 1.16092 1.6689 1.38314C1.44562 1.60536 1.33398 1.88314 1.33398 2.21647C1.33398 2.4088 1.37287 2.60303 1.45065 2.79914C1.52843 2.9953 1.66732 3.21978 1.86732 3.47255C2.06732 3.72533 2.33954 4.02256 2.68398 4.36422C3.02843 4.70589 3.46732 5.11775 4.00065 5.5998Z" fill="#1C1B1F"/>
</svg>
