<svg width="16" height="16" viewBox="0 0 16 16" fill="none" xmlns="http://www.w3.org/2000/svg">
<path d="M8 1.16675C11.0383 1.16675 13.5 3.61064 13.5 6.66675V11.3337C13.4999 11.7314 13.3418 12.1131 13.0605 12.3943C12.7793 12.6755 12.3977 12.8337 12 12.8337C11.1717 12.8337 10.5002 12.162 10.5 11.3337V9.99976C10.5002 9.17148 11.1717 8.49976 12 8.49976H13.167V6.66675C13.167 5.29646 12.6223 3.98237 11.6533 3.01343C10.6844 2.04449 9.37029 1.49976 8 1.49976C6.62971 1.49976 5.31562 2.04449 4.34668 3.01343C3.37774 3.98237 2.83301 5.29646 2.83301 6.66675V8.49976H4C4.82832 8.49976 5.49982 9.17148 5.5 9.99976V11.3337C5.49982 12.162 4.82832 12.8337 4 12.8337C3.60225 12.8337 3.22074 12.6755 2.93945 12.3943C2.65823 12.1131 2.50009 11.7314 2.5 11.3337V6.66675C2.5 3.60956 4.94281 1.16675 8 1.16675Z" stroke="#BDBDBD"/>
</svg>
