<svg width="14" height="14" viewBox="0 0 14 14" fill="none" xmlns="http://www.w3.org/2000/svg">
<path d="M3.10258 6.16669H3.89758V5.16669H3.10258V6.16669ZM4.76925 7.50002H5.56425V3.83335H4.76925V7.50002ZM6.60258 8.83335H7.39758V2.50002H6.60258V8.83335ZM8.43591 7.50002H9.23092V3.83335H8.43591V7.50002ZM10.1026 6.16669H10.8976V5.16669H10.1026V6.16669ZM0.666748 13.0257V1.87185C0.666748 1.53508 0.783415 1.25002 1.01675 1.01669C1.25008 0.783354 1.53514 0.666687 1.87191 0.666687H12.1282C12.465 0.666687 12.7501 0.783354 12.9834 1.01669C13.2167 1.25002 13.3334 1.53508 13.3334 1.87185V9.46152C13.3334 9.7983 13.2167 10.0834 12.9834 10.3167C12.7501 10.55 12.465 10.6667 12.1282 10.6667H3.02575L0.666748 13.0257ZM2.60008 9.66669H12.1282C12.1796 9.66669 12.2266 9.6453 12.2692 9.60252C12.312 9.55985 12.3334 9.51285 12.3334 9.46152V1.87185C12.3334 1.82052 12.312 1.77352 12.2692 1.73085C12.2266 1.68808 12.1796 1.66669 12.1282 1.66669H1.87191C1.82058 1.66669 1.77358 1.68808 1.73091 1.73085C1.68814 1.77352 1.66675 1.82052 1.66675 1.87185V10.5899L2.60008 9.66669Z" fill="#8F8F8F"/>
</svg>
