<svg width="8" height="8" viewBox="0 0 8 8" fill="none" xmlns="http://www.w3.org/2000/svg">
<mask id="mask0_119_995" style="mask-type:alpha" maskUnits="userSpaceOnUse" x="0" y="0" width="8" height="8">
<rect width="8" height="8" fill="#D9D9D9"/>
</mask>
<g mask="url(#mask0_119_995)">
<path d="M6.6 7.53335L5.59167 6.52502C5.45278 6.61391 5.30555 6.69029 5.15 6.75418C4.99444 6.81807 4.83333 6.86946 4.66667 6.90835V6.22502C4.74444 6.19724 4.82083 6.16946 4.89583 6.14168C4.97083 6.11391 5.04167 6.08057 5.10833 6.04168L4 4.93335V6.66668L2.33333 5.00002H0.999998V3.00002H2.06666L0.466665 1.40002L0.933331 0.93335L7.06667 7.06668L6.6 7.53335ZM6.53333 5.60002L6.05 5.11668C6.14444 4.94446 6.21528 4.76391 6.2625 4.57502C6.30972 4.38613 6.33333 4.19168 6.33333 3.99168C6.33333 3.46946 6.18055 3.00279 5.875 2.59168C5.56944 2.18057 5.16667 1.90279 4.66667 1.75835V1.07502C5.35555 1.23057 5.91667 1.57918 6.35 2.12085C6.78333 2.66252 7 3.28613 7 3.99168C7 4.28613 6.95972 4.56946 6.87917 4.84168C6.79861 5.11391 6.68333 5.36668 6.53333 5.60002ZM5.41667 4.48335L4.66667 3.73335V2.65002C4.92778 2.77224 5.13194 2.95557 5.27917 3.20002C5.42639 3.44446 5.5 3.71113 5.5 4.00002C5.5 4.08335 5.49305 4.16529 5.47917 4.24585C5.46528 4.32641 5.44444 4.40557 5.41667 4.48335ZM4 3.06668L3.13333 2.20002L4 1.33335V3.06668ZM3.33333 5.05002V4.26668L2.73333 3.66668H1.66666V4.33335H2.61667L3.33333 5.05002Z" fill="#1C1B1F"/>
</g>
</svg>
