<svg width="28" height="28" viewBox="0 0 28 28" fill="none" xmlns="http://www.w3.org/2000/svg">
<mask id="mask0_202_811" style="mask-type:alpha" maskUnits="userSpaceOnUse" x="0" y="0" width="28" height="28">
<rect width="28" height="28" transform="matrix(0 1 1 0 0 0)" fill="#D9D9D9"/>
</mask>
<g mask="url(#mask0_202_811)">
<path d="M25.0837 14C25.0837 12.6239 24.8234 11.3347 24.3029 10.1322C23.7823 8.92958 23.0749 7.88104 22.1804 6.98659C21.286 6.09215 20.2374 5.38466 19.0348 4.86414C17.8323 4.34361 16.5431 4.08334 15.167 4.08334C13.7909 4.08334 12.5017 4.34361 11.2992 4.86414C10.0966 5.38466 9.04803 6.09215 8.15358 6.98659C7.25914 7.88104 6.55165 8.92958 6.03113 10.1322C5.5106 11.3347 5.25033 12.6239 5.25033 14V14.3098L3.37463 12.4341L2.10937 13.6634L6.11425 17.6794L10.1188 13.6859L8.85358 12.4565L7.00033 14.3098V14C7.00033 11.725 7.7927 9.79515 9.37742 8.21043C10.9621 6.62571 12.892 5.83334 15.167 5.83334C17.442 5.83334 19.3719 6.62571 20.9566 8.21043C22.5413 9.79515 23.3337 11.725 23.3337 14C23.3337 16.275 22.5413 18.2049 20.9566 19.7896C19.3719 21.3743 17.442 22.1667 15.167 22.1667V23.9167C16.5431 23.9167 17.8323 23.6564 19.0348 23.1359C20.2374 22.6154 21.286 21.9079 22.1804 21.0134C23.0749 20.119 23.7823 19.0704 24.3029 17.8678C24.8234 16.6654 25.0837 15.3761 25.0837 14Z" fill="#333333"/>
<path d="M13.5596 10.8516V18H12.6562V11.9795L10.835 12.6436V11.8281L13.418 10.8516H13.5596ZM16.9284 14.6162L16.2057 14.4307L16.5622 10.8906H20.2096V11.7256H17.3288L17.1139 13.6592C17.2442 13.5843 17.4085 13.5143 17.6071 13.4492C17.8089 13.3841 18.0401 13.3516 18.3005 13.3516C18.6292 13.3516 18.9238 13.4085 19.1843 13.5225C19.4447 13.6331 19.666 13.7926 19.8483 14.001C20.0339 14.2093 20.1755 14.46 20.2731 14.7529C20.3708 15.0459 20.4196 15.373 20.4196 15.7344C20.4196 16.0762 20.3724 16.3903 20.278 16.6768C20.1869 16.9632 20.0485 17.2139 19.863 17.4287C19.6774 17.6403 19.443 17.8047 19.1598 17.9219C18.8799 18.0391 18.5495 18.0977 18.1686 18.0977C17.8822 18.0977 17.6104 18.0586 17.3532 17.9805C17.0993 17.8991 16.8714 17.777 16.6696 17.6143C16.471 17.4482 16.3083 17.2432 16.1813 16.999C16.0576 16.7516 15.9795 16.4619 15.947 16.1299H16.8063C16.8454 16.3968 16.9235 16.6214 17.0407 16.8037C17.1579 16.986 17.3109 17.1243 17.4997 17.2188C17.6917 17.3099 17.9147 17.3555 18.1686 17.3555C18.3835 17.3555 18.5739 17.318 18.7399 17.2432C18.9059 17.1683 19.0459 17.0609 19.1598 16.9209C19.2738 16.7809 19.36 16.6117 19.4186 16.4131C19.4805 16.2145 19.5114 15.9915 19.5114 15.7441C19.5114 15.5195 19.4805 15.3112 19.4186 15.1191C19.3568 14.9271 19.264 14.7594 19.1403 14.6162C19.0199 14.473 18.8718 14.3623 18.696 14.2842C18.5202 14.2028 18.3184 14.1621 18.0905 14.1621C17.7878 14.1621 17.5583 14.2028 17.402 14.2842C17.249 14.3656 17.0912 14.4762 16.9284 14.6162Z" fill="#333333"/>
</g>
</svg>
