<svg width="28" height="28" viewBox="0 0 28 28" fill="none" xmlns="http://www.w3.org/2000/svg">
<mask id="mask0_202_818" style="mask-type:alpha" maskUnits="userSpaceOnUse" x="0" y="0" width="28" height="28">
<rect x="28" width="28" height="28" transform="rotate(90 28 0)" fill="#D9D9D9"/>
</mask>
<g mask="url(#mask0_202_818)">
<path d="M2.91633 14C2.91633 12.6239 3.1766 11.3347 3.69712 10.1322C4.21765 8.92958 4.92513 7.88104 5.81958 6.98659C6.71402 6.09215 7.76257 5.38466 8.96521 4.86414C10.1677 4.34361 11.4569 4.08334 12.833 4.08334C14.2091 4.08334 15.4983 4.34361 16.7008 4.86414C17.9034 5.38466 18.952 6.09215 19.8464 6.98659C20.7409 7.88104 21.4483 8.92958 21.9689 10.1322C22.4894 11.3347 22.7497 12.6239 22.7497 14V14.3098L24.6254 12.4341L25.8906 13.6634L21.8857 17.6794L17.8812 13.6859L19.1464 12.4565L20.9997 14.3098V14C20.9997 11.725 20.2073 9.79515 18.6226 8.21043C17.0379 6.62571 15.108 5.83334 12.833 5.83334C10.558 5.83334 8.62814 6.62571 7.04342 8.21043C5.45869 9.79515 4.66633 11.725 4.66633 14C4.66633 16.275 5.45869 18.2049 7.04342 19.7896C8.62814 21.3743 10.558 22.1667 12.833 22.1667V23.9167C11.4569 23.9167 10.1677 23.6564 8.96521 23.1359C7.76257 22.6154 6.71402 21.9079 5.81958 21.0134C4.92513 20.119 4.21765 19.0704 3.69712 17.8678C3.1766 16.6654 2.91633 15.3761 2.91633 14Z" fill="#333333"/>
<path d="M9.55957 10.8516V18H8.65625V11.9795L6.83496 12.6436V11.8281L9.41797 10.8516H9.55957ZM12.9284 14.6162L12.2057 14.4307L12.5622 10.8906H16.2096V11.7256H13.3288L13.1139 13.6592C13.2442 13.5843 13.4085 13.5143 13.6071 13.4492C13.8089 13.3841 14.0401 13.3516 14.3005 13.3516C14.6292 13.3516 14.9238 13.4085 15.1843 13.5225C15.4447 13.6331 15.666 13.7926 15.8483 14.001C16.0339 14.2093 16.1755 14.46 16.2731 14.7529C16.3708 15.0459 16.4196 15.373 16.4196 15.7344C16.4196 16.0762 16.3724 16.3903 16.278 16.6768C16.1869 16.9632 16.0485 17.2139 15.863 17.4287C15.6774 17.6403 15.443 17.8047 15.1598 17.9219C14.8799 18.0391 14.5495 18.0977 14.1686 18.0977C13.8822 18.0977 13.6104 18.0586 13.3532 17.9805C13.0993 17.8991 12.8714 17.777 12.6696 17.6143C12.471 17.4482 12.3083 17.2432 12.1813 16.999C12.0576 16.7516 11.9795 16.4619 11.947 16.1299H12.8063C12.8454 16.3968 12.9235 16.6214 13.0407 16.8037C13.1579 16.986 13.3109 17.1243 13.4997 17.2188C13.6917 17.3099 13.9147 17.3555 14.1686 17.3555C14.3835 17.3555 14.5739 17.318 14.7399 17.2432C14.9059 17.1683 15.0459 17.0609 15.1598 16.9209C15.2738 16.7809 15.36 16.6117 15.4186 16.4131C15.4805 16.2145 15.5114 15.9915 15.5114 15.7441C15.5114 15.5195 15.4805 15.3112 15.4186 15.1191C15.3568 14.9271 15.264 14.7594 15.1403 14.6162C15.0199 14.473 14.8718 14.3623 14.696 14.2842C14.5202 14.2028 14.3184 14.1621 14.0905 14.1621C13.7878 14.1621 13.5583 14.2028 13.402 14.2842C13.249 14.3656 13.0912 14.4762 12.9284 14.6162Z" fill="#333333"/>
</g>
</svg>
