<svg width="24" height="24" viewBox="0 0 24 24" fill="none" xmlns="http://www.w3.org/2000/svg">
<mask id="mask0_202_785" style="mask-type:alpha" maskUnits="userSpaceOnUse" x="0" y="0" width="24" height="24">
<rect width="24" height="24" fill="#D9D9D9"/>
</mask>
<g mask="url(#mask0_202_785)">
<path d="M15.1773 11.0686C14.7356 11.0686 14.3569 10.9145 14.0413 10.6063C13.7255 10.298 13.5676 9.91608 13.5676 9.46045V5.60811C13.5676 5.15248 13.7251 4.77059 14.0401 4.46245C14.355 4.15415 14.7336 4 15.1759 4C15.6317 4 16.0136 4.15415 16.3216 4.46245C16.6297 4.77059 16.7838 5.15248 16.7838 5.60811V9.46045C16.7838 9.91608 16.6299 10.298 16.322 10.6063C16.014 10.9145 15.6325 11.0686 15.1773 11.0686ZM4.66118 21.6892C4.20432 21.6892 3.81324 21.5265 3.48795 21.2012C3.16265 20.8759 3 20.4849 3 20.028V5.89091C3 5.43405 3.16265 5.04297 3.48795 4.71768C3.81324 4.39238 4.20432 4.22973 4.66118 4.22973H11.5V5.60811H4.66118C4.57863 5.60811 4.51086 5.6346 4.45786 5.6876C4.40487 5.74059 4.37838 5.80836 4.37838 5.89091V20.028C4.37838 20.1106 4.40487 20.1783 4.45786 20.2313C4.51086 20.2843 4.57863 20.3108 4.66118 20.3108H14.2037C14.2862 20.3108 14.354 20.2843 14.407 20.2313C14.46 20.1783 14.4865 20.1106 14.4865 20.028V18.3491H15.8649V20.0243C15.8649 20.485 15.7022 20.8777 15.3769 21.2024C15.0516 21.5269 14.6605 21.6892 14.2037 21.6892H4.66118ZM6.44595 18.3491V16.8649H12.4189V18.3491H6.44595ZM6.44595 15.5924V14.2142H10.5811V15.5924H6.44595ZM15.8649 16.4054H14.4865V14.0516C13.3308 13.8902 12.3527 13.38 11.5521 12.5211C10.7516 11.6624 10.3514 10.6422 10.3514 9.46045H11.7297C11.7297 10.3783 12.0702 11.1526 12.7511 11.7835C13.432 12.4143 14.24 12.7297 15.175 12.7297C16.1262 12.7297 16.9385 12.4143 17.6117 11.7835C18.285 11.1526 18.6216 10.3783 18.6216 9.46045H20C20 10.648 19.6036 11.6698 18.8107 12.5257C18.0178 13.3815 17.0359 13.8902 15.8649 14.0516V16.4054Z" fill="#1C1B1F"/>
</g>
</svg>
