<svg width="24" height="24" viewBox="0 0 24 24" fill="none" xmlns="http://www.w3.org/2000/svg">
<path d="M6.6 11.1H7.95V9.3H6.6V11.1ZM8.85 12.9H10.2V7.5H8.85V12.9ZM11.325 14.7H12.675V5.7H11.325V14.7ZM13.8 12.9H15.15V7.5H13.8V12.9ZM16.05 11.1H17.4V9.3H16.05V11.1ZM3 21V4.8C3 4.305 3.17625 3.88125 3.52875 3.52875C3.88125 3.17625 4.305 3 4.8 3H19.2C19.695 3 20.1188 3.17625 20.4713 3.52875C20.8238 3.88125 21 4.305 21 4.8V15.6C21 16.095 20.8238 16.5188 20.4713 16.8713C20.1188 17.2238 19.695 17.4 19.2 17.4H6.6L3 21ZM6.26228 16.0499L19.7623 16.0499L19.7623 10.3124V4.23745L4.23728 4.23745V11.3249V18.4124L6.26228 16.0499Z" fill="#333333"/>
</svg>
